<svg width="75" height="70" viewBox="0 0 75 70" fill="none" xmlns="http://www.w3.org/2000/svg">
<rect width="75" height="70" rx="15" fill="#D12B2F" fill-opacity="0.15"/>
<g clip-path="url(#clip0_1_2715)">
<path fill-rule="evenodd" clip-rule="evenodd" d="M26.6621 23.5483H30.6517V24.9717H27.8284C27.457 24.9755 27.1019 25.1194 26.839 25.3726C26.5761 25.6258 26.4264 25.9683 26.4218 26.3267V47.5669C26.4251 47.9257 26.5744 48.2689 26.8376 48.5223C27.1007 48.7758 27.4566 48.9193 27.8284 48.9219H47.1716C47.5436 48.9206 47.9 48.7774 48.163 48.5236C48.426 48.2698 48.5744 47.9259 48.5757 47.5669V26.3267C48.5724 25.9683 48.4234 25.6255 48.1608 25.3721C47.8982 25.1186 47.543 24.9749 47.1716 24.9717H44.3483V23.5483H48.3354C48.776 23.5496 49.1983 23.719 49.5101 24.0194C49.8219 24.3199 49.998 24.7271 50 25.1523V48.729C49.9967 49.1538 49.8202 49.5603 49.5086 49.8605C49.1971 50.1607 48.7756 50.3305 48.3354 50.333H26.6621C26.2219 50.3311 25.8003 50.1615 25.489 49.8611C25.1778 49.5607 25.002 49.1538 25 48.729V25.1523C25.0013 24.7273 25.1769 24.3201 25.4883 24.0196C25.7997 23.719 26.2217 23.5496 26.6621 23.5483ZM37.7935 28.2944H46.5645V29.0977H37.7808V28.2944H37.7935ZM37.7935 32.6694H40.804V33.4751H37.7808V32.6694H37.7935ZM37.7935 30.3916H42.0284V31.1973H37.7808V30.3916H37.7935ZM44.151 30.167H44.877C44.9441 30.167 45.0085 30.1927 45.0559 30.2385C45.1034 30.2843 45.13 30.3464 45.13 30.4111V31.2241H45.9725C46.0396 31.2241 46.1039 31.2498 46.1514 31.2956C46.1988 31.3414 46.2255 31.4035 46.2255 31.4683V32.1714C46.2255 32.2361 46.1988 32.2982 46.1514 32.344C46.1039 32.3898 46.0396 32.4155 45.9725 32.4155H45.1123V33.209C45.1123 33.2737 45.0857 33.3358 45.0382 33.3816C44.9908 33.4274 44.9264 33.4531 44.8593 33.4531H44.1383C44.0712 33.4531 44.0069 33.4274 43.9594 33.3816C43.912 33.3358 43.8853 33.2737 43.8853 33.209V32.3984H43.048C42.9809 32.3984 42.9165 32.3727 42.8691 32.3269C42.8216 32.2811 42.795 32.219 42.795 32.1543V31.4585C42.795 31.3937 42.8216 31.3316 42.8691 31.2859C42.9165 31.2401 42.9809 31.2144 43.048 31.2144H43.8904V30.4062C43.8904 30.3415 43.9171 30.2794 43.9645 30.2336C44.0119 30.1878 44.0763 30.1621 44.1434 30.1621L44.151 30.167ZM30.9957 31.7124C31.0312 31.6367 31.0615 31.5513 31.0818 31.4951C30.9985 31.3953 30.9224 31.2901 30.8541 31.1802L30.6163 30.8311C30.5439 30.7368 30.4993 30.6255 30.4872 30.5088C30.484 30.4685 30.4919 30.428 30.51 30.3916C30.5267 30.3556 30.554 30.325 30.5884 30.3037C30.6056 30.2916 30.6243 30.2817 30.6441 30.2744C30.6314 30.0622 30.6314 29.8494 30.6441 29.6372C30.6495 29.5886 30.6588 29.5404 30.6719 29.4932C30.7348 29.2895 30.8736 29.1156 31.0615 29.0049C31.1631 28.942 31.274 28.8942 31.3904 28.8633C31.4638 28.8438 31.3272 28.6191 31.4031 28.6191C31.7699 28.5825 32.3644 28.9072 32.6199 29.1733C32.7597 29.3244 32.8402 29.5179 32.8476 29.7202L32.8324 30.3013C32.8625 30.3078 32.8899 30.3225 32.9115 30.3437C32.933 30.365 32.9478 30.3918 32.9539 30.4209C32.9678 30.5266 32.9456 30.6337 32.8906 30.7261L32.6376 31.146C32.54 31.2981 32.4236 31.4383 32.291 31.5635C32.302 31.5803 32.3138 31.5966 32.3265 31.6123C32.7717 32.2446 33.3738 31.9199 34.0746 32.4131L34.0518 32.4399V33.5166H29.3007V32.4302C29.3065 32.4164 29.3173 32.4051 29.3311 32.3984C29.784 32.1543 30.8288 32.0591 30.9882 31.7124H30.9957ZM28.7189 27.4277H34.6413C34.7755 27.4277 34.9042 27.4792 34.999 27.5707C35.0939 27.6623 35.1472 27.7865 35.1472 27.916V34.2148C35.1453 34.3424 35.0918 34.4642 34.998 34.5542C34.9046 34.6462 34.7773 34.6988 34.6438 34.7007H28.7239C28.5898 34.7007 28.4611 34.6492 28.3662 34.5577C28.2713 34.4661 28.218 34.3419 28.218 34.2124V27.9136C28.218 27.7841 28.2713 27.6599 28.3662 27.5683C28.4611 27.4767 28.5898 27.4253 28.7239 27.4253L28.7189 27.4277ZM34.6362 27.8428H28.7239C28.7047 27.8434 28.6866 27.8513 28.6733 27.8647C28.666 27.8707 28.6601 27.8782 28.6561 27.8866C28.6522 27.8951 28.6503 27.9043 28.6506 27.9136V34.2148C28.6516 34.2326 28.6598 34.2492 28.6733 34.2612C28.6797 34.2681 28.6875 34.2736 28.6962 34.2774C28.7049 34.2812 28.7144 34.2832 28.7239 34.2832H34.6413C34.6595 34.2816 34.6765 34.2738 34.6895 34.2614C34.7024 34.2489 34.7104 34.2324 34.7121 34.2148V27.9136C34.7121 27.9044 34.71 27.8952 34.7061 27.8868C34.7022 27.8784 34.6965 27.8709 34.6893 27.8647C34.6769 27.8517 34.6596 27.8438 34.6413 27.8428H34.6362ZM28.4861 45.1572H42.6862V45.9678H28.4861V45.1694V45.1572ZM28.4861 42.0933H46.5037V42.8916H28.4861V42.0933ZM28.4861 38.4653H32.7869L33.5635 36.9468L35.0941 39.0732L36.6373 36.1631L38.2337 39.1831L38.9142 38.5703L39.1925 38.4653H41.3757L42.7444 37.103L44.0093 38.4653H46.5037V39.2637H43.6425L42.7241 38.27L41.7274 39.2637H39.3544L37.9832 40.4844L36.6373 37.9111L35.1877 40.6138L33.6698 38.5068L33.2827 39.2637H28.476V38.4653H28.4861ZM32.9564 22.5742H34.8411C34.9027 21.9707 35.1908 21.4097 35.6511 20.9969C36.1115 20.5841 36.7124 20.348 37.3406 20.333C37.964 20.3473 38.5607 20.5798 39.0196 20.9872C39.4785 21.3946 39.7683 21.9491 39.8351 22.5474L42.0411 22.5742C42.1149 22.5742 42.1857 22.6025 42.2379 22.6529C42.29 22.7032 42.3194 22.7715 42.3194 22.8428V25.4087C42.3194 25.4799 42.29 25.5482 42.2379 25.5986C42.1857 25.649 42.1149 25.6772 42.0411 25.6772H32.9589C32.8851 25.6772 32.8143 25.649 32.7621 25.5986C32.71 25.5482 32.6806 25.4799 32.6806 25.4087V22.8428C32.68 22.8075 32.6866 22.7725 32.7002 22.7398C32.7138 22.7071 32.734 22.6773 32.7597 22.6523C32.7854 22.6273 32.8161 22.6074 32.8499 22.594C32.8836 22.5806 32.9199 22.5739 32.9564 22.5742ZM36.3059 23.6753C36.4801 23.9126 36.7109 24.1061 36.9788 24.2393C37.1979 24.3002 37.4303 24.3002 37.6493 24.2393C37.994 24.0595 38.2691 23.7768 38.4335 23.4336C38.452 23.346 38.4614 23.2569 38.4613 23.1675C38.4717 23.019 38.4503 22.8701 38.3985 22.7299C38.3467 22.5897 38.2657 22.4613 38.1604 22.3527C38.0551 22.244 37.9277 22.1573 37.7863 22.0981C37.6448 22.0388 37.4923 22.0083 37.3381 22.0083C37.1839 22.0083 37.0313 22.0388 36.8899 22.0981C36.7484 22.1573 36.6211 22.244 36.5158 22.3527C36.4105 22.4613 36.3294 22.5897 36.2777 22.7299C36.2259 22.8701 36.2045 23.019 36.2148 23.1675C36.2154 23.3353 36.2506 23.5013 36.3186 23.6558L36.3059 23.6753Z" fill="#D12B2F"/>
</g>
<defs>
<clipPath id="clip0_1_2715">
<rect width="25" height="30" fill="white" transform="translate(25 20.333)"/>
</clipPath>
</defs>
</svg>
