<svg width="30" height="30" viewBox="0 0 30 30" fill="none" xmlns="http://www.w3.org/2000/svg">
<circle cx="15" cy="15" r="14.75" fill="white" stroke="#C2C7D6" stroke-width="0.5"/>
<path d="M14.5003 22.4166C15.3712 22.4166 16.0837 21.7041 16.0837 20.8333H12.917C12.917 21.7041 13.6295 22.4166 14.5003 22.4166ZM19.2503 17.6666V13.7083C19.2503 11.2779 17.9599 9.24329 15.6878 8.70496V8.16663C15.6878 7.50954 15.1574 6.97913 14.5003 6.97913C13.8432 6.97913 13.3128 7.50954 13.3128 8.16663V8.70496C11.0487 9.24329 9.75033 11.27 9.75033 13.7083V17.6666L8.16699 19.25V20.0416H20.8337V19.25L19.2503 17.6666ZM17.667 18.4583H11.3337V13.7083C11.3337 11.745 12.5291 10.1458 14.5003 10.1458C16.4716 10.1458 17.667 11.745 17.667 13.7083V18.4583Z" fill="#2B2A29"/>
<circle cx="24" cy="3" r="3" fill="#D12B2F"/>
</svg>
