<svg width="75" height="70" viewBox="0 0 75 70" fill="none" xmlns="http://www.w3.org/2000/svg">
<rect width="75" height="70" rx="15" fill="#3772FF" fill-opacity="0.15"/>
<path d="M23.1374 38.2876H23.2444V41.2995H25.9083L33.8238 44.4174L33.8234 43.5624L28.0783 41.2991H33.8234L33.8226 40.4433H24.0998V38.2859H34.0184V36.4034C33.8311 36.471 33.3279 36.5165 33.1211 36.5365C33.0331 36.5455 32.9521 36.5499 32.8719 36.5499C30.7385 36.5499 30.5354 35.5899 30.4088 34.3184C30.399 34.2228 30.3925 34.1307 30.3843 34.0371H23.1374C22.429 34.0371 21.8545 34.6112 21.8545 35.32V37.0039C21.8545 37.7135 22.429 38.2876 23.1374 38.2876Z" fill="#3772FF"/>
<path d="M52.861 34.0381H46.1792C46.1743 34.0906 46.1735 34.1382 46.1686 34.1916C46.0395 35.4887 45.5281 36.6059 43.5641 36.4104C43.3862 36.3925 42.861 36.3567 42.6949 36.3034L42.6904 38.2877H51.8994V40.4451H42.8569L42.8565 41.3009H47.9205L42.8565 43.2955L42.8561 44.15L50.0909 41.3009H52.7548V38.2881H52.8622C53.5707 38.2881 54.1447 37.7141 54.1447 37.0053V35.3214C54.1443 34.6121 53.5707 34.0381 52.861 34.0381Z" fill="#3772FF"/>
<path d="M52.968 52.3827V51.9161H53.6373V51.0611H52.8589L42.5499 47.0004C42.4224 47.2463 42.2604 47.4698 42.0678 47.666L50.6885 51.0619H25.3106L34.4345 47.4682C34.2659 47.2589 34.1275 47.026 34.0249 46.7744L23.1398 51.0615H22.3618V51.9169H22.6032V52.3835C22.1602 52.6156 21.8545 53.0752 21.8545 53.6102C21.8545 54.3776 22.4766 55.0001 23.2444 55.0001C24.0123 55.0001 24.6344 54.3776 24.6344 53.6102C24.6344 53.0756 24.3286 52.6168 23.8857 52.3835V51.9169H51.6851V52.3835C51.2422 52.6156 50.9368 53.0752 50.9368 53.6102C50.9368 54.3776 51.5585 55.0001 52.3268 55.0001C53.0942 55.0001 53.7167 54.3776 53.7167 53.6102C53.7167 53.0748 53.411 52.616 52.968 52.3827Z" fill="#3772FF"/>
<path d="M40.1585 34.2402C39.1952 34.2402 38.4135 35.0211 38.4135 35.9852L38.4131 45.9681C38.4131 46.9318 39.1948 47.7127 40.1585 47.7127C41.1217 47.7127 41.9034 46.9318 41.9034 45.9681L41.9043 35.9852C41.9043 35.0211 41.1234 34.2402 40.1585 34.2402Z" fill="#3772FF"/>
<path d="M36.4188 34.2402C35.4551 34.2402 34.6738 35.0211 34.6738 35.9856L34.6746 45.9681C34.6746 46.9318 35.4563 47.7135 36.4204 47.7127C37.3837 47.7127 38.165 46.9318 38.165 45.9673L38.1646 35.9852C38.1646 35.0211 37.3825 34.2398 36.4188 34.2402Z" fill="#3772FF"/>
<path d="M38.2706 22.6077C40.3714 22.6077 42.0745 20.9046 42.0745 18.8038C42.0745 16.703 40.3714 15 38.2706 15C36.1698 15 34.4668 16.703 34.4668 18.8038C34.4668 20.9046 36.1698 22.6077 38.2706 22.6077Z" fill="#3772FF"/>
<path d="M32.5564 35.9373C32.6049 35.9373 32.6549 35.9345 32.7054 35.9296C33.5168 35.8482 34.108 35.1239 34.0266 34.3125C33.8043 32.0847 33.9671 30.5294 34.3775 29.3719V34.628C34.3775 34.7188 34.3861 34.8063 34.3934 34.8939C34.759 34.1203 35.5403 33.5805 36.451 33.5805C37.0613 33.5805 37.6338 33.8178 38.0645 34.2482C38.1614 34.3455 38.2441 34.4509 38.3214 34.5604C38.7347 33.9697 39.4174 33.5809 40.191 33.5809C41.0337 33.5809 41.7629 34.0454 42.1582 34.7265C42.1591 34.6936 42.1643 34.6618 42.1643 34.628V29.2807C42.5988 30.4341 42.7763 31.978 42.5564 34.1785C42.475 34.99 43.0674 35.7138 43.8788 35.7953C43.9285 35.8001 43.9781 35.803 44.027 35.803C44.7765 35.803 45.4186 35.2346 45.4947 34.4725C46.1595 27.8293 42.9542 23.8154 39.2175 22.9262L38.2705 23.8805L37.3516 22.916C37.3484 22.9168 37.3447 22.9168 37.3423 22.9176C36.0704 23.3256 30.1344 25.402 31.0887 34.6077C31.1644 35.3686 31.8065 35.9373 32.5564 35.9373Z" fill="#3772FF"/>
</svg>
