<svg width="16" height="16" viewBox="0 0 16 16" fill="none" xmlns="http://www.w3.org/2000/svg">
<path d="M9.3335 0C10.2176 0 11.0654 0.351189 11.6905 0.976311C12.3156 1.60143 12.6668 2.44928 12.6668 3.33333V11.3333C12.6668 11.9462 12.5461 12.553 12.3116 13.1192C12.0771 13.6854 11.7333 14.1998 11.3 14.6332C10.8667 15.0665 10.3522 15.4102 9.78602 15.6448C9.21983 15.8793 8.613 16 8.00016 16C7.38733 16 6.78049 15.8793 6.21431 15.6448C5.64812 15.4102 5.13367 15.0665 4.70033 14.6332C4.26699 14.1998 3.92325 13.6854 3.68872 13.1192C3.4542 12.553 3.3335 11.9462 3.3335 11.3333V6H4.66683V11.3333C4.66683 12.2174 5.01802 13.0652 5.64314 13.6904C6.26826 14.3155 7.11611 14.6667 8.00016 14.6667C8.88422 14.6667 9.73206 14.3155 10.3572 13.6904C10.9823 13.0652 11.3335 12.2174 11.3335 11.3333V3.33333C11.3335 3.07069 11.2818 2.81062 11.1813 2.56797C11.0807 2.32532 10.9334 2.10484 10.7477 1.91912C10.562 1.7334 10.3415 1.58608 10.0989 1.48557C9.85621 1.38506 9.59614 1.33333 9.3335 1.33333C9.07085 1.33333 8.81078 1.38506 8.56813 1.48557C8.32548 1.58608 8.105 1.7334 7.91928 1.91912C7.73356 2.10484 7.58625 2.32532 7.48574 2.56797C7.38523 2.81062 7.3335 3.07069 7.3335 3.33333V11.3333C7.3335 11.5101 7.40373 11.6797 7.52876 11.8047C7.65378 11.9298 7.82335 12 8.00016 12C8.17697 12 8.34654 11.9298 8.47157 11.8047C8.59659 11.6797 8.66683 11.5101 8.66683 11.3333V4H10.0002V11.3333C10.0002 11.8638 9.78945 12.3725 9.41438 12.7475C9.0393 13.1226 8.5306 13.3333 8.00016 13.3333C7.46973 13.3333 6.96102 13.1226 6.58595 12.7475C6.21088 12.3725 6.00016 11.8638 6.00016 11.3333V3.33333C6.00016 2.44928 6.35135 1.60143 6.97647 0.976311C7.60159 0.351189 8.44944 0 9.3335 0V0Z" fill="#667499"/>
</svg>
