<svg width="75" height="70" viewBox="0 0 75 70" fill="none" xmlns="http://www.w3.org/2000/svg">
<rect width="75" height="70" rx="15" fill="#4C956C" fill-opacity="0.15"/>
<path d="M54.3388 15.1949C53.9532 14.9572 53.4735 14.9355 53.0692 15.1376L48.4353 17.4546L43.8013 15.1376C43.4344 14.9542 43.0013 14.9542 42.6345 15.1376L38.0005 17.4545L33.3665 15.1376C32.9996 14.9542 32.5665 14.9542 32.1997 15.1376L27.5657 17.4545L22.9317 15.1376C22.5275 14.9359 22.0477 14.9571 21.6621 15.1948C21.2784 15.4326 21.0439 15.852 21.0439 16.3043V51.0868C21.0439 51.5811 21.3233 52.0324 21.7649 52.2536L26.9822 54.8623C27.3491 55.0457 27.7822 55.0457 28.149 54.8623L32.783 52.5453L37.417 54.8623C37.7839 55.0457 38.2169 55.0457 38.5838 54.8623L43.2178 52.5453L47.8518 54.8623C48.0352 54.954 48.2356 54.9999 48.4352 54.9999C48.6347 54.9999 48.8352 54.954 49.0185 54.8623L54.2359 52.2536C54.6774 52.0324 54.9568 51.5811 54.9568 51.0868V16.3044C54.957 15.8521 54.7226 15.4326 54.3388 15.1949ZM27.5657 22.8261H34.5222C35.2423 22.8261 35.8266 23.4099 35.8266 24.1305C35.8266 24.851 35.2423 25.4348 34.5222 25.4348H27.5657C26.8456 25.4348 26.2613 24.851 26.2613 24.1305C26.2613 23.4099 26.8456 22.8261 27.5657 22.8261ZM27.5657 28.0435H34.5222C35.2423 28.0435 35.8266 28.6273 35.8266 29.3479C35.8266 30.0684 35.2423 30.6523 34.5222 30.6523H27.5657C26.8456 30.6523 26.2613 30.0684 26.2613 29.3479C26.2613 28.6273 26.8456 28.0435 27.5657 28.0435ZM27.5657 33.2609H34.5222C35.2423 33.2609 35.8266 33.8447 35.8266 34.5653C35.8266 35.2858 35.2423 35.8696 34.5222 35.8696H27.5657C26.8456 35.8696 26.2613 35.2858 26.2613 34.5653C26.2613 33.8447 26.8456 33.2609 27.5657 33.2609ZM27.5657 38.4783H34.5222C35.2423 38.4783 35.8266 39.0621 35.8266 39.7827C35.8266 40.5032 35.2423 41.0871 34.5222 41.0871H27.5657C26.8456 41.0871 26.2613 40.5032 26.2613 39.7827C26.2613 39.0621 26.8456 38.4783 27.5657 38.4783ZM27.5657 47.174H24.957C24.2369 47.174 23.6526 46.5901 23.6526 45.8696C23.6526 45.149 24.2369 44.5652 24.957 44.5652H27.5657C28.2858 44.5652 28.8701 45.149 28.8701 45.8696C28.8701 46.5901 28.2858 47.174 27.5657 47.174ZM35.3917 47.174H32.783C32.063 47.174 31.4787 46.5901 31.4787 45.8696C31.4787 45.149 32.063 44.5652 32.783 44.5652H35.3917C36.1118 44.5652 36.6961 45.149 36.6961 45.8696C36.6961 46.5901 36.1119 47.174 35.3917 47.174ZM43.2178 47.174H40.6091C39.8891 47.174 39.3048 46.5901 39.3048 45.8696C39.3048 45.149 39.8891 44.5652 40.6091 44.5652H43.2178C43.9379 44.5652 44.5222 45.149 44.5222 45.8696C44.5222 46.5901 43.938 47.174 43.2178 47.174ZM46.2613 39.7826C46.2613 40.5032 45.677 41.087 44.957 41.087C44.2369 41.087 43.6526 40.5032 43.6526 39.7826V39.1624C41.6485 38.5926 40.1743 36.7497 40.1743 34.5653C40.1743 33.8447 40.7586 33.2609 41.4787 33.2609C42.1988 33.2609 42.7831 33.8447 42.7831 34.5653C42.7831 35.7638 43.7579 36.7392 44.957 36.7392C46.156 36.7392 47.1309 35.7638 47.1309 34.5653C47.1309 33.7119 45.7161 32.9637 44.3472 32.2406C42.4884 31.2577 40.1743 30.0344 40.1743 27.6088C40.1743 25.4243 41.6484 23.5813 43.6526 23.0116V22.3914C43.6526 21.6709 44.2369 21.087 44.957 21.087C45.677 21.087 46.2613 21.6709 46.2613 22.3914V23.0116C48.2654 23.5814 49.7396 25.4243 49.7396 27.6088C49.7396 28.3293 49.1553 28.9131 48.4353 28.9131C47.7152 28.9131 47.1309 28.3293 47.1309 27.6088C47.1309 26.4102 46.156 25.4348 44.957 25.4348C43.7579 25.4348 42.7831 26.4102 42.7831 27.6088C42.7831 28.4626 44.1978 29.2108 45.5667 29.9342C47.4256 30.9167 49.7396 32.1399 49.7396 34.5653C49.7396 36.7497 48.2655 38.5926 46.2613 39.1624V39.7826ZM51.0439 47.174H48.4353C47.7152 47.174 47.1309 46.5901 47.1309 45.8696C47.1309 45.149 47.7152 44.5652 48.4353 44.5652H51.0439C51.764 44.5652 52.3483 45.149 52.3483 45.8696C52.3483 46.5901 51.7641 47.174 51.0439 47.174Z" fill="#4C956C"/>
</svg>
