<svg width="75" height="70" viewBox="0 0 75 70" fill="none" xmlns="http://www.w3.org/2000/svg">
<rect width="75" height="70" rx="15" fill="#3772FF" fill-opacity="0.15"/>
<path d="M49.25 41.5205C47.375 37.958 45.5 38.5205 43.4375 38.333C43.625 38.8955 43.625 39.458 43.625 40.208C46.625 40.958 47.375 44.5205 47.375 46.583V48.458H43.625V46.583H45.5C45.5 46.583 45.5 41.8955 42.6875 41.8955C39.875 41.8955 39.875 46.3955 39.875 46.583H41.75V48.458H38V46.583C38 44.5205 38.75 40.7705 41.75 40.208C41.75 39.083 41.5625 38.1455 41.375 37.7705C41 37.583 40.625 37.208 40.625 36.6455C40.625 35.5205 42.125 35.8955 43.25 33.833C43.25 33.833 44.9375 29.5205 44.375 25.7705H42.5C42.5 25.3955 42.6875 25.208 42.6875 24.833C42.6875 24.458 42.6875 24.2705 42.5 23.8955H44C43.4375 22.0205 41.5625 20.333 38 20.333C34.4375 20.333 32.5625 22.0205 31.8125 24.083H33.3125C33.3125 24.458 33.125 24.6455 33.125 25.0205C33.125 25.3955 33.125 25.583 33.3125 25.958H31.4375C31.0625 29.708 32.5625 34.0205 32.5625 34.0205C33.6875 35.8955 35.1875 35.5205 35.1875 36.833C35.1875 37.7705 34.25 38.1455 33.125 38.333C32.75 38.708 32.375 39.458 32.375 40.958C32.375 41.708 32.375 42.458 32.375 43.208C33.5 43.583 34.25 44.708 34.25 45.833C34.25 47.1455 32.9375 48.458 31.4375 48.458C29.9375 48.458 28.625 47.1455 28.625 45.6455C28.625 44.333 29.375 43.3955 30.5 43.0205C30.5 42.458 30.5 41.708 30.5 40.7705C30.5 39.833 30.6875 39.083 30.875 38.333C29.5625 38.5205 28.0625 39.083 26.75 41.5205C25.625 43.583 25.0625 50.333 25.0625 50.333H50.75C50.9375 50.333 50.375 43.583 49.25 41.5205ZM35.1875 25.0205C35.1875 23.5205 36.5 22.208 38 22.208C39.5 22.208 40.8125 23.5205 40.8125 25.0205C40.8125 26.5205 39.5 27.833 38 27.833C36.5 27.833 35.1875 26.5205 35.1875 25.0205Z" fill="#3772FF"/>
<path d="M32.375 45.6455C32.375 46.163 31.955 46.583 31.4375 46.583C30.92 46.583 30.5 46.163 30.5 45.6455C30.5 45.128 30.92 44.708 31.4375 44.708C31.955 44.708 32.375 45.128 32.375 45.6455Z" fill="#3772FF"/>
</svg>
