<svg width="16" height="16" viewBox="0 0 16 16" fill="none" xmlns="http://www.w3.org/2000/svg">
<path d="M4.87465 1.92911C4.95206 1.85151 5.04402 1.78994 5.14526 1.74793C5.2465 1.70592 5.35504 1.68429 5.46465 1.68429C5.57426 1.68429 5.68279 1.70592 5.78403 1.74793C5.88527 1.78994 5.97723 1.85151 6.05464 1.92911L11.5946 7.46904C11.6564 7.53072 11.7054 7.60397 11.7389 7.68462C11.7723 7.76527 11.7895 7.85172 11.7895 7.93903C11.7895 8.02635 11.7723 8.1128 11.7389 8.19345C11.7054 8.2741 11.6564 8.34735 11.5946 8.40903L6.05464 13.949C5.72798 14.2756 5.20132 14.2756 4.87465 13.949C4.54799 13.6223 4.54799 13.0956 4.87465 12.769L9.70126 7.9357L4.86799 3.10243C4.54799 2.78243 4.54799 2.24911 4.87465 1.92911Z" fill="#3772FF"/>
</svg>
