<svg width="20" height="20" viewBox="0 0 20 20" fill="none" xmlns="http://www.w3.org/2000/svg">
<path fill-rule="evenodd" clip-rule="evenodd" d="M6.17009 14.4648C9.02217 14.0482 10.9859 14.084 13.8418 14.4794C14.0486 14.5094 14.2376 14.6132 14.3738 14.7716C14.5101 14.9301 14.5844 15.1325 14.583 15.3415C14.583 15.5415 14.5143 15.7357 14.3901 15.8873C14.1737 16.1517 13.952 16.4118 13.7251 16.6673H14.8255C14.8947 16.5848 14.9643 16.5007 15.0347 16.4152C15.2818 16.1122 15.4167 15.733 15.4163 15.3419C15.4163 14.4982 14.8005 13.7711 13.9559 13.6544C11.0326 13.2498 8.98926 13.2111 6.04967 13.6407C5.19634 13.7652 4.58301 14.5036 4.58301 15.3532C4.58301 15.7302 4.70592 16.1032 4.93884 16.4052C5.00759 16.4944 5.07551 16.5819 5.14301 16.6677H6.21676C6.00568 16.415 5.79981 16.158 5.59926 15.8969C5.48008 15.7406 5.41578 15.5493 5.41634 15.3527C5.41634 14.904 5.73884 14.5277 6.17009 14.4648ZM9.99967 10.4173C10.328 10.4173 10.6531 10.3527 10.9564 10.227C11.2597 10.1014 11.5353 9.91723 11.7674 9.68508C11.9996 9.45294 12.1837 9.17734 12.3094 8.87403C12.435 8.57071 12.4997 8.24562 12.4997 7.91732C12.4997 7.58901 12.435 7.26392 12.3094 6.96061C12.1837 6.65729 11.9996 6.3817 11.7674 6.14955C11.5353 5.9174 11.2597 5.73326 10.9564 5.60762C10.6531 5.48198 10.328 5.41732 9.99967 5.41732C9.33663 5.41732 8.70075 5.68071 8.23191 6.14955C7.76307 6.61839 7.49967 7.25428 7.49967 7.91732C7.49967 8.58036 7.76307 9.21624 8.23191 9.68508C8.70075 10.1539 9.33663 10.4173 9.99967 10.4173ZM9.99967 11.2507C10.8837 11.2507 11.7316 10.8995 12.3567 10.2743C12.9818 9.64922 13.333 8.80137 13.333 7.91732C13.333 7.03326 12.9818 6.18542 12.3567 5.56029C11.7316 4.93517 10.8837 4.58398 9.99967 4.58398C9.11562 4.58398 8.26777 4.93517 7.64265 5.56029C7.01753 6.18542 6.66634 7.03326 6.66634 7.91732C6.66634 8.80137 7.01753 9.64922 7.64265 10.2743C8.26777 10.8995 9.11562 11.2507 9.99967 11.2507Z" fill="#3772FF"/>
<path fill-rule="evenodd" clip-rule="evenodd" d="M9.99984 17.5003C14.1419 17.5003 17.4998 14.1424 17.4998 10.0003C17.4998 5.85824 14.1419 2.50033 9.99984 2.50033C5.85775 2.50033 2.49984 5.85824 2.49984 10.0003C2.49984 14.1424 5.85775 17.5003 9.99984 17.5003ZM9.99984 18.3337C14.6023 18.3337 18.3332 14.6028 18.3332 10.0003C18.3332 5.39783 14.6023 1.66699 9.99984 1.66699C5.39734 1.66699 1.6665 5.39783 1.6665 10.0003C1.6665 14.6028 5.39734 18.3337 9.99984 18.3337Z" fill="#3772FF"/>
</svg>
