<svg width="30" height="30" viewBox="0 0 30 30" fill="none" xmlns="http://www.w3.org/2000/svg">
<g clip-path="url(#clip0_1_5220)">
<path d="M7.5 0C6.46875 0 5.625 0.84375 5.625 1.875V28.125C5.625 29.1562 6.46875 30 7.5 30H26.25C27.2812 30 28.125 29.1562 28.125 28.125V7.5L20.625 0H7.5Z" fill="#E2E5E7"/>
<path d="M22.5 7.5H28.125L20.625 0V5.625C20.625 6.65625 21.4688 7.5 22.5 7.5Z" fill="#B0B7BD"/>
<path d="M28.125 13.125L22.5 7.5H28.125V13.125Z" fill="#CAD1D8"/>
<path d="M24.375 24.375C24.375 24.8906 23.9531 25.3125 23.4375 25.3125H2.8125C2.29688 25.3125 1.875 24.8906 1.875 24.375V15C1.875 14.4844 2.29688 14.0625 2.8125 14.0625H23.4375C23.9531 14.0625 24.375 14.4844 24.375 15V24.375Z" fill="#EB5757"/>
<path d="M5.96143 17.7627C5.96143 17.5152 6.15643 17.2452 6.47049 17.2452H8.20205C9.17705 17.2452 10.0546 17.8977 10.0546 19.1484C10.0546 20.3334 9.17705 20.9934 8.20205 20.9934H6.95049V21.9834C6.95049 22.3134 6.74049 22.4999 6.47049 22.4999C6.22299 22.4999 5.96143 22.3134 5.96143 21.9834V17.7627ZM6.95049 18.1893V20.0568H8.20205C8.70455 20.0568 9.10205 19.6134 9.10205 19.1484C9.10205 18.6243 8.70455 18.1893 8.20205 18.1893H6.95049Z" fill="white"/>
<path d="M11.5224 22.4999C11.2749 22.4999 11.0049 22.3649 11.0049 22.0359V17.7777C11.0049 17.5087 11.2749 17.3127 11.5224 17.3127H13.2389C16.6646 17.3127 16.5896 22.4999 13.3064 22.4999H11.5224ZM11.9949 18.2277V21.5859H13.2389C15.263 21.5859 15.353 18.2277 13.2389 18.2277H11.9949Z" fill="white"/>
<path d="M17.8048 18.2877V19.4793H19.7164C19.9864 19.4793 20.2564 19.7493 20.2564 20.0108C20.2564 20.2583 19.9864 20.4608 19.7164 20.4608H17.8048V22.0349C17.8048 22.2974 17.6183 22.499 17.3558 22.499C17.0258 22.499 16.8242 22.2974 16.8242 22.0349V17.7768C16.8242 17.5077 17.0267 17.3118 17.3558 17.3118H19.9873C20.3173 17.3118 20.5123 17.5077 20.5123 17.7768C20.5123 18.0168 20.3173 18.2868 19.9873 18.2868H17.8048V18.2877Z" fill="white"/>
<path d="M23.4375 25.3125H5.625V26.25H23.4375C23.9531 26.25 24.375 25.8281 24.375 25.3125V24.375C24.375 24.8906 23.9531 25.3125 23.4375 25.3125Z" fill="#CAD1D8"/>
</g>
<defs>
<clipPath id="clip0_1_5220">
<rect width="30" height="30" fill="white"/>
</clipPath>
</defs>
</svg>
