<svg width="20" height="20" viewBox="0 0 20 20" fill="none" xmlns="http://www.w3.org/2000/svg">
<g clip-path="url(#clip0_1_16810)">
<path d="M17.778 3.3335H2.22244C1.92775 3.3335 1.64514 3.45056 1.43676 3.65893C1.22839 3.86731 1.11133 4.14992 1.11133 4.44461V15.5557C1.11133 15.8504 1.22839 16.133 1.43676 16.3414C1.64514 16.5498 1.92775 16.6668 2.22244 16.6668H17.778C18.0727 16.6668 18.3553 16.5498 18.5637 16.3414C18.772 16.133 18.8891 15.8504 18.8891 15.5557V4.44461C18.8891 4.14992 18.772 3.86731 18.5637 3.65893C18.3553 3.45056 18.0727 3.3335 17.778 3.3335ZM16.9224 15.5557H3.14466L7.03355 11.5335L6.23355 10.7613L2.22244 14.9113V5.28905L9.128 12.1613C9.33618 12.3682 9.61779 12.4844 9.91133 12.4844C10.2049 12.4844 10.4865 12.3682 10.6947 12.1613L17.778 5.11683V14.8391L13.6891 10.7502L12.9058 11.5335L16.9224 15.5557ZM2.95022 4.44461H16.878L9.91133 11.3724L2.95022 4.44461Z" fill="#3772FF"/>
</g>
<defs>
<clipPath id="clip0_1_16810">
<rect width="20" height="20" fill="white"/>
</clipPath>
</defs>
</svg>
