<svg width="19" height="19" viewBox="0 0 19 19" fill="none" xmlns="http://www.w3.org/2000/svg">
<path d="M16.0312 3.71094H12.9141V2.96875C12.9121 2.5363 12.7395 2.12212 12.4337 1.81633C12.1279 1.51054 11.7137 1.33789 11.2812 1.33594H7.71875C7.2863 1.33789 6.87212 1.51054 6.56633 1.81633C6.26055 2.12212 6.08789 2.5363 6.08594 2.96875V3.71094H2.96875C2.85065 3.71094 2.73738 3.75785 2.65387 3.84137C2.57035 3.92488 2.52344 4.03815 2.52344 4.15625C2.52344 4.27435 2.57035 4.38762 2.65387 4.47113C2.73738 4.55465 2.85065 4.60156 2.96875 4.60156H3.71094V15.4375C3.71094 15.7131 3.82041 15.9774 4.01527 16.1722C4.21013 16.3671 4.47442 16.4766 4.75 16.4766H14.25C14.5256 16.4766 14.7899 16.3671 14.9847 16.1722C15.1796 15.9774 15.2891 15.7131 15.2891 15.4375V4.60156H16.0312C16.1494 4.60156 16.2626 4.55465 16.3461 4.47113C16.4296 4.38762 16.4766 4.27435 16.4766 4.15625C16.4766 4.03815 16.4296 3.92488 16.3461 3.84137C16.2626 3.75785 16.1494 3.71094 16.0312 3.71094ZM6.97656 2.96875C6.97656 2.77191 7.05476 2.58313 7.19394 2.44394C7.33313 2.30476 7.52191 2.22656 7.71875 2.22656H11.2812C11.4781 2.22656 11.6669 2.30476 11.8061 2.44394C11.9452 2.58313 12.0234 2.77191 12.0234 2.96875V3.71094H6.97656V2.96875ZM14.3984 15.4375C14.3984 15.4769 14.3828 15.5146 14.355 15.5425C14.3271 15.5703 14.2894 15.5859 14.25 15.5859H4.75C4.71063 15.5859 4.67288 15.5703 4.64504 15.5425C4.6172 15.5146 4.60156 15.4769 4.60156 15.4375V4.60156H14.3984V15.4375ZM8.16406 7.71875V12.4688C8.16406 12.5869 8.11715 12.7001 8.03363 12.7836C7.95012 12.8671 7.83685 12.9141 7.71875 12.9141C7.60065 12.9141 7.48738 12.8671 7.40387 12.7836C7.32035 12.7001 7.27344 12.5869 7.27344 12.4688V7.71875C7.27344 7.60065 7.32035 7.48738 7.40387 7.40387C7.48738 7.32035 7.60065 7.27344 7.71875 7.27344C7.83685 7.27344 7.95012 7.32035 8.03363 7.40387C8.11715 7.48738 8.16406 7.60065 8.16406 7.71875ZM11.7266 7.71875V12.4688C11.7266 12.5869 11.6796 12.7001 11.5961 12.7836C11.5126 12.8671 11.3994 12.9141 11.2812 12.9141C11.1631 12.9141 11.0499 12.8671 10.9664 12.7836C10.8829 12.7001 10.8359 12.5869 10.8359 12.4688V7.71875C10.8359 7.60065 10.8829 7.48738 10.9664 7.40387C11.0499 7.32035 11.1631 7.27344 11.2812 7.27344C11.3994 7.27344 11.5126 7.32035 11.5961 7.40387C11.6796 7.48738 11.7266 7.60065 11.7266 7.71875Z" fill="#D12B2F"/>
</svg>
