<svg width="20" height="20" viewBox="0 0 20 20" fill="none" xmlns="http://www.w3.org/2000/svg">
<path d="M7.20727 10.0572L9.7709 12.6209C9.81 12.6597 9.84104 12.7058 9.86225 12.7566C9.88346 12.8074 9.89442 12.862 9.89451 12.917C9.89459 12.9721 9.8838 13.0267 9.86274 13.0775C9.84169 13.1284 9.81079 13.1747 9.77181 13.2136L9.32181 13.6636C9.28307 13.703 9.23684 13.7343 9.18584 13.7557C9.13484 13.777 9.08009 13.788 9.0248 13.7879C8.96952 13.7878 8.9148 13.7767 8.86387 13.7552C8.81293 13.7337 8.7668 13.7022 8.72818 13.6627L5.36454 10.299C5.32531 10.2602 5.29415 10.214 5.27286 10.1631C5.25157 10.1122 5.24057 10.0576 5.24048 10.0024C5.2404 9.94723 5.25123 9.89257 5.27237 9.8416C5.29351 9.79062 5.32452 9.74433 5.36363 9.7054L5.54181 9.52722C5.55041 9.51678 5.55951 9.50677 5.56909 9.49722L8.73181 6.33449C8.81167 6.25684 8.91901 6.21392 9.0304 6.21511C9.14179 6.2163 9.24818 6.26151 9.32636 6.34086L9.82454 6.83904C9.90411 6.9171 9.94947 7.02354 9.95066 7.135C9.95185 7.24646 9.90879 7.35384 9.8309 7.43358L7.20727 10.0572Z" fill="#3772FF"/>
<path d="M10.8366 10.0573L13.3993 12.6209C13.4385 12.6596 13.4696 12.7057 13.4909 12.7565C13.5122 12.8073 13.5232 12.8618 13.5234 12.9169C13.5236 12.972 13.5128 13.0265 13.4919 13.0774C13.4709 13.1284 13.4401 13.1746 13.4011 13.2136L12.9502 13.6636C12.9115 13.7029 12.8653 13.7341 12.8144 13.7554C12.7635 13.7766 12.7089 13.7876 12.6537 13.7875C12.5985 13.7874 12.5439 13.7763 12.493 13.7549C12.4422 13.7335 12.3961 13.7021 12.3575 13.6627L8.99387 10.2991C8.95458 10.2603 8.92335 10.2142 8.90198 10.1633C8.88061 10.1124 8.86952 10.0578 8.86935 10.0026C8.86918 9.94745 8.87994 9.89278 8.901 9.84178C8.92205 9.79077 8.953 9.74443 8.99205 9.70544L9.17023 9.52726C9.17882 9.51682 9.18793 9.5068 9.1975 9.49726L12.3611 6.33453C12.441 6.25715 12.5481 6.21441 12.6593 6.2156C12.7704 6.21679 12.8766 6.26182 12.9548 6.34089L13.453 6.83908C13.5325 6.91714 13.5779 7.02357 13.5791 7.13503C13.5803 7.24649 13.5372 7.35388 13.4593 7.43362L10.8357 10.0573H10.8366Z" fill="#3772FF"/>
</svg>
