<svg width="75" height="70" viewBox="0 0 75 70" fill="none" xmlns="http://www.w3.org/2000/svg">
<rect width="75" height="70" rx="15" fill="#FDC500" fill-opacity="0.15"/>
<g clip-path="url(#clip0_1_2701)">
<path d="M38.6928 35.1954C35.6534 38.2345 35.4364 43.0264 38.0404 46.3159L49.8127 34.544C46.5229 31.94 41.7318 32.1569 38.6928 35.1954Z" fill="#FDC500"/>
<path d="M51.1971 35.9287L39.4248 47.7008C42.715 50.3056 47.5062 50.0887 50.5453 47.0488C53.5842 44.0102 53.8011 39.2183 51.1971 35.9287Z" fill="#FDC500"/>
<path d="M39.8694 21.8618C36.1495 20.1251 31.7255 21.7326 29.9887 25.453L27.5615 30.652L36.4385 34.7965C36.7057 34.452 36.9957 34.1229 37.3082 33.8105C38.2945 32.8243 39.4456 32.0604 40.7295 31.5398C41.7213 31.1375 42.7578 30.8945 43.8205 30.8134C44.9182 27.3135 43.2839 23.456 39.8694 21.8618ZM37.8774 26.1285C36.5157 25.493 34.8909 26.0835 34.2554 27.4447L32.4809 26.6164C33.5731 24.2767 36.3655 23.2619 38.7055 24.354L37.8774 26.1285Z" fill="#FDC500"/>
<path d="M35.0362 45.0122C34.5337 43.7731 34.2789 42.4643 34.279 41.1223C34.279 39.7802 34.5338 38.4714 35.0364 37.2323C35.1423 36.9712 35.2588 36.7159 35.3846 36.4662L26.7329 32.4268L23.6994 38.9243C21.9631 42.6446 23.5707 47.0678 27.2905 48.8045C30.3748 50.2448 33.9426 49.3854 36.0618 46.9293C35.6544 46.3303 35.311 45.69 35.0362 45.0122Z" fill="#FDC500"/>
</g>
<defs>
<clipPath id="clip0_1_2701">
<rect width="30" height="30" fill="white" transform="translate(23 20.333)"/>
</clipPath>
</defs>
</svg>
