<svg width="20" height="20" viewBox="0 0 20 20" fill="none" xmlns="http://www.w3.org/2000/svg">
<path d="M15.8333 3.33329H15V2.49996C15 2.04163 14.625 1.66663 14.1667 1.66663C13.7083 1.66663 13.3333 2.04163 13.3333 2.49996V3.33329H6.66667V2.49996C6.66667 2.04163 6.29167 1.66663 5.83333 1.66663C5.375 1.66663 5 2.04163 5 2.49996V3.33329H4.16667C3.24167 3.33329 2.50833 4.08329 2.50833 4.99996L2.5 16.6666C2.5 17.1087 2.67559 17.5326 2.98816 17.8451C3.30072 18.1577 3.72464 18.3333 4.16667 18.3333H15.8333C16.75 18.3333 17.5 17.5833 17.5 16.6666V4.99996C17.5 4.08329 16.75 3.33329 15.8333 3.33329ZM15.8333 15.8333C15.8333 16.2916 15.4583 16.6666 15 16.6666H5C4.54167 16.6666 4.16667 16.2916 4.16667 15.8333V7.49996H15.8333V15.8333ZM5.83333 9.16663H7.5V10.8333H5.83333V9.16663ZM9.16667 9.16663H10.8333V10.8333H9.16667V9.16663ZM12.5 9.16663H14.1667V10.8333H12.5V9.16663Z" fill="#667499"/>
</svg>
