<svg width="16" height="16" viewBox="0 0 16 16" fill="none" xmlns="http://www.w3.org/2000/svg">
<path d="M7.99984 14.667C8.73317 14.667 9.33317 14.067 9.33317 13.3337H6.6665C6.6665 14.067 7.2665 14.667 7.99984 14.667ZM11.9998 10.667V7.33366C11.9998 5.28699 10.9132 3.57366 8.99984 3.12033V2.66699C8.99984 2.11366 8.55317 1.66699 7.99984 1.66699C7.4465 1.66699 6.99984 2.11366 6.99984 2.66699V3.12033C5.09317 3.57366 3.99984 5.28033 3.99984 7.33366V10.667L2.6665 12.0003V12.667H13.3332V12.0003L11.9998 10.667ZM10.6665 11.3337H5.33317V7.33366C5.33317 5.68033 6.33984 4.33366 7.99984 4.33366C9.65984 4.33366 10.6665 5.68033 10.6665 7.33366V11.3337Z" fill="#2B2A29"/>
</svg>
