<svg width="75" height="70" viewBox="0 0 75 70" fill="none" xmlns="http://www.w3.org/2000/svg">
<rect width="75" height="70" rx="15" fill="#4C956C" fill-opacity="0.15"/>
<path d="M51.3848 45.0358L43.5141 30.4745V21.8001C43.5141 20.9837 42.8311 20.333 42.0154 20.333H33.9817C33.1653 20.333 32.4935 20.9837 32.4935 21.8001V30.4745L24.6162 45.0358C24.0154 46.146 24.0456 47.4941 24.6918 48.5793C25.3379 49.6632 26.5099 50.333 27.772 50.333H48.2244C49.4865 50.333 50.6611 49.6632 51.3073 48.5793C51.9527 47.4941 51.9856 46.146 51.3848 45.0358ZM39.2994 38.9439C40.0047 38.9439 40.5759 39.5151 40.5759 40.2204C40.5759 40.925 40.0034 41.4969 39.2994 41.4969C38.5947 41.4969 38.0229 40.925 38.0229 40.2204C38.0229 39.5171 38.5941 38.9439 39.2994 38.9439ZM35.7098 31.2686C36.4151 31.2686 36.9863 31.8404 36.9863 32.5457C36.9863 33.2503 36.4151 33.8222 35.7098 33.8222C35.0044 33.8222 34.4332 33.2503 34.4332 32.5457C34.4339 31.8404 35.0044 31.2686 35.7098 31.2686ZM35.7098 35.7251C36.8522 35.7251 37.779 36.6519 37.779 37.7936C37.779 38.936 36.8522 39.8622 35.7098 39.8622C34.5667 39.8622 33.6405 38.936 33.6405 37.7936C33.6405 36.6512 34.5667 35.7251 35.7098 35.7251ZM47.5927 46.3373C47.3272 46.7895 46.8414 47.0563 46.3189 47.0563H29.6775C29.1543 47.0563 28.6692 46.7895 28.4037 46.3373C28.1381 45.885 28.1309 45.3329 28.3853 44.8741L30.3855 41.2786C30.6707 40.7646 31.2334 40.4702 31.8184 40.526C34.4746 40.7791 37.4602 43.0514 40.1282 42.9502C41.5573 42.8956 42.8837 42.375 44.1471 41.6789C44.8603 41.2846 45.7575 41.5429 46.1532 42.2554L47.6118 44.8728C47.8649 45.3322 47.8583 45.8857 47.5927 46.3373Z" fill="#4C956C"/>
</svg>
