<svg width="75" height="70" viewBox="0 0 75 70" fill="none" xmlns="http://www.w3.org/2000/svg">
<rect width="75" height="70" rx="15" fill="#D12B2F" fill-opacity="0.15"/>
<g clip-path="url(#clip0_1_16717)">
<path d="M50.5461 21.765H47.8766V17.9948C47.8766 17.0013 47.0679 16.1927 46.0749 16.1927H40.3186V15.8009C40.3186 15.3585 39.96 15 39.5177 15H32.0102C31.5679 15 31.2094 15.3585 31.2094 15.8009V16.1927H25.4531C24.4596 16.1927 23.6514 17.0009 23.6514 17.9948V47.6256C23.6514 48.619 24.4596 49.4273 25.4531 49.4273H28.123V53.1979C28.123 54.1918 28.9313 55 29.9247 55H50.5461C51.54 55 52.3482 54.1918 52.3482 53.1979V23.5671C52.3482 22.5736 51.54 21.765 50.5461 21.765ZM28.123 23.5671V47.4256H25.6535V18.1952H31.209V18.4346C31.209 18.877 31.5675 19.2355 32.0098 19.2355H39.5173C39.9596 19.2355 40.3182 18.877 40.3182 18.4346V18.1952H45.8736V21.7654H44.789V21.3732C44.789 20.9308 44.4305 20.5723 43.9885 20.5723H36.4811C36.0387 20.5723 35.6802 20.9308 35.6802 21.3732V21.765H29.9247C28.9313 21.765 28.123 22.5736 28.123 23.5671ZM50.3461 52.9979H30.1247V23.7671H35.6806V24.0065C35.6806 24.4488 36.0391 24.8074 36.4815 24.8074H43.9885C44.4313 24.8074 44.7898 24.4484 44.7898 24.0065V23.7671H50.3449V52.9975H50.3461V52.9979Z" fill="#D12B2F"/>
<path d="M47.1756 39.5215H33.2949V42.3245H47.1756V39.5215Z" fill="#D12B2F"/>
<path d="M47.1756 45.2607H33.2949V48.0641H47.1756V45.2607Z" fill="#D12B2F"/>
<path d="M39.0007 36.5192H41.4694V33.3819H44.6067V30.9128H41.4694V27.7764H39.0007V30.9128H35.8643V33.3819H39.0007V36.5192Z" fill="#D12B2F"/>
</g>
<defs>
<clipPath id="clip0_1_16717">
<rect width="40" height="40" fill="white" transform="translate(18 15)"/>
</clipPath>
</defs>
</svg>
