<svg width="16" height="16" viewBox="0 0 16 16" fill="none" xmlns="http://www.w3.org/2000/svg">
<path d="M13.3333 1.33301C13.5101 1.33301 13.6797 1.40325 13.8047 1.52827C13.9298 1.65329 14 1.82286 14 1.99967V13.9997C14 14.1765 13.9298 14.3461 13.8047 14.4711C13.6797 14.5961 13.5101 14.6663 13.3333 14.6663H4C3.82319 14.6663 3.65362 14.5961 3.5286 14.4711C3.40357 14.3461 3.33333 14.1765 3.33333 13.9997V12.6663H2V11.333H3.33333V9.99967H2V8.66634H3.33333V7.33301H2V5.99967H3.33333V4.66634H2V3.33301H3.33333V1.99967C3.33333 1.82286 3.40357 1.65329 3.5286 1.52827C3.65362 1.40325 3.82319 1.33301 4 1.33301H13.3333ZM12.6667 2.66634H4.66667V13.333H12.6667V2.66634ZM9.33333 5.33301V7.33301H11.3333V8.66634H9.33267L9.33333 10.6663H8L7.99933 8.66634H6V7.33301H8V5.33301H9.33333Z" fill="#D12B2F"/>
</svg>
