<svg width="16" height="16" viewBox="0 0 16 16" fill="none" xmlns="http://www.w3.org/2000/svg">
<g clip-path="url(#clip0_1_16762)">
<path d="M15.9505 0.757185C15.9243 0.814267 15.8882 0.866267 15.8439 0.910785L5.75959 10.9929L8.60759 15.7407C8.65805 15.8251 8.73087 15.8939 8.818 15.9396C8.90514 15.9852 9.0032 16.0058 9.10134 15.9992C9.19948 15.9926 9.29387 15.959 9.37409 15.902C9.4543 15.8451 9.51721 15.7671 9.55586 15.6767L15.9505 0.757185ZM5.00653 10.2399L0.258795 7.38972C0.174358 7.33927 0.105518 7.26645 0.0598871 7.17931C0.0142559 7.09217 -0.00638933 6.99411 0.000234189 6.89597C0.00685771 6.79784 0.0404919 6.70344 0.097418 6.62323C0.154344 6.54301 0.232344 6.4801 0.322795 6.44145L15.2455 0.0478516C15.1875 0.0741856 15.1348 0.110672 15.0897 0.155585L5.00653 10.2399Z" fill="white"/>
</g>
<defs>
<clipPath id="clip0_1_16762">
<rect width="16" height="16" fill="white"/>
</clipPath>
</defs>
</svg>
