<svg width="20" height="20" viewBox="0 0 20 20" fill="none" xmlns="http://www.w3.org/2000/svg">
<g clip-path="url(#clip0_1_6243)">
<path d="M10.4619 9.90812C8.43561 11.9341 8.29096 15.1287 10.0269 17.3218L17.8751 9.47382C15.6819 7.73781 12.4878 7.88241 10.4619 9.90812Z" fill="white"/>
<path d="M18.7984 10.397L10.9502 18.245C13.1437 19.9816 16.3378 19.837 18.3638 17.8104C20.3898 15.7846 20.5344 12.5901 18.7984 10.397Z" fill="white"/>
<path d="M11.2463 1.01922C8.76633 -0.138633 5.81699 0.933085 4.65914 3.41332L3.04102 6.8793L8.95898 9.64234C9.13715 9.41266 9.33047 9.19324 9.53879 8.985C10.1963 8.32754 10.9637 7.81824 11.8196 7.47117C12.4809 7.20301 13.1719 7.04102 13.8803 6.98691C14.6121 4.65363 13.5226 2.08199 11.2463 1.01922ZM9.91824 3.86367C9.01047 3.44 7.92727 3.83367 7.50359 4.74113L6.32063 4.18894C7.04875 2.6291 8.91035 1.95258 10.4703 2.68066L9.91824 3.86367Z" fill="white"/>
<path d="M8.02411 16.4526C7.68911 15.6265 7.51927 14.754 7.51931 13.8593C7.51931 12.9645 7.68923 12.092 8.02427 11.266C8.09485 11.0919 8.17251 10.9217 8.25642 10.7552L2.4886 8.06226L0.466299 12.3939C-0.69124 14.8742 0.380478 17.8229 2.86036 18.9807C4.91653 19.9409 7.29505 19.368 8.70786 17.7306C8.43626 17.3313 8.20735 16.9044 8.02411 16.4526Z" fill="white"/>
</g>
<defs>
<clipPath id="clip0_1_6243">
<rect width="20" height="20" fill="white"/>
</clipPath>
</defs>
</svg>
