<svg width="16" height="16" viewBox="0 0 16 16" fill="none" xmlns="http://www.w3.org/2000/svg">
<g clip-path="url(#clip0_1_15988)">
<path d="M15.0062 8.52315V14.6075H3.33418V8.52315H15.0062ZM15.9996 7.52979H2.34082V15.6009H15.9996V7.52979Z" fill="white"/>
<path d="M12.2744 7.52979L13.6726 8.92795C13.662 8.97948 13.6415 9.02728 13.6415 9.08192C13.6415 9.52707 14.0022 9.88716 14.4474 9.88716C14.502 9.88716 14.5492 9.86668 14.6007 9.85674L15.9995 11.2549V7.52979H12.2744Z" fill="white"/>
<path d="M13.2053 12.371C13.6503 12.371 14.0111 12.0102 14.0111 11.5651C14.0111 11.1201 13.6503 10.7593 13.2053 10.7593C12.7602 10.7593 12.3994 11.1201 12.3994 11.5651C12.3994 12.0102 12.7602 12.371 13.2053 12.371Z" fill="white"/>
<path d="M9.16989 13.685C10.5161 13.685 11.6074 12.736 11.6074 11.5654C11.6074 10.3948 10.5161 9.4458 9.16989 9.4458C7.82371 9.4458 6.73242 10.3948 6.73242 11.5654C6.73242 12.736 7.82371 13.685 9.16989 13.685Z" fill="white"/>
<path d="M5.13435 12.3707C5.57907 12.3707 5.93959 12.0102 5.93959 11.5655C5.93959 11.1208 5.57907 10.7603 5.13435 10.7603C4.68962 10.7603 4.3291 11.1208 4.3291 11.5655C4.3291 12.0102 4.68962 12.3707 5.13435 12.3707Z" fill="white"/>
<path d="M2.34082 11.2549L3.73898 9.85674C3.79051 9.8673 3.83832 9.88778 3.89295 9.88778C4.3381 9.88778 4.6982 9.52707 4.6982 9.08192C4.6982 9.02728 4.67771 8.9801 4.66716 8.92857L6.06594 7.52979H2.34082V11.2549Z" fill="white"/>
<path d="M4.69882 14.049C4.69882 13.6038 4.3381 13.2437 3.89295 13.2437C3.83832 13.2437 3.79113 13.2642 3.7396 13.2741L2.34082 11.876V15.6011H6.06594L4.66778 14.2029C4.67833 14.1514 4.69882 14.103 4.69882 14.049Z" fill="white"/>
<path d="M14.4474 13.2431C14.0022 13.2431 13.6422 13.6038 13.6422 14.049C13.6422 14.1036 13.6626 14.1508 13.6732 14.2023L12.2744 15.6011H15.9995V11.876L14.6014 13.2741C14.5498 13.2636 14.502 13.2431 14.4474 13.2431Z" fill="white"/>
<path d="M11.4693 6.08559C11.914 6.08559 12.2746 5.72507 12.2746 5.28034C12.2746 4.83562 11.914 4.4751 11.4693 4.4751C11.0246 4.4751 10.6641 4.83562 10.6641 5.28034C10.6641 5.72507 11.0246 6.08559 11.4693 6.08559Z" fill="white"/>
<path d="M1.40996 7.52991C1.40996 7.01584 1.82717 6.59863 2.34124 6.59863H2.85034L2.87331 6.51916L10.0609 2.58295L10.6104 2.74313C10.6259 2.7928 10.6315 2.84495 10.6582 2.89276C10.8718 3.2839 11.361 3.42607 11.7521 3.2125C11.7993 3.18642 11.8316 3.14607 11.8707 3.11192L12.4214 3.27334L13.6737 5.55932L13.5129 6.1094C13.4638 6.1243 13.4117 6.12989 13.3639 6.15596C13.1819 6.2553 13.0609 6.41796 12.9969 6.59863H15.3754L13.7699 3.66634H13.7705L11.9806 0.399414L8.71243 2.18871H8.71305L3.26755 5.17067L0 6.95997L1.40996 9.53464V7.52991Z" fill="white"/>
<path d="M6.9103 5.36053C6.36953 5.65606 5.98026 6.10431 5.76172 6.59851H10.2523C10.2163 6.40915 10.1623 6.22352 10.0667 6.04906C9.5036 5.02216 8.09116 4.71422 6.9103 5.36053Z" fill="white"/>
</g>
<defs>
<clipPath id="clip0_1_15988">
<rect width="16" height="16" fill="white"/>
</clipPath>
</defs>
</svg>
