<svg width="94" height="75" viewBox="0 0 94 75" fill="none" xmlns="http://www.w3.org/2000/svg">
<path d="M74.391 40.7783C75.8339 38.8855 77.2773 37.2685 78.4074 35.456C81.4279 30.6117 86.157 22.9096 87.255 20.79C87.8156 19.6558 88.6325 18.8515 89.1486 18.8017C89.6652 18.7521 90.3243 18.7342 90.8823 19.0826C91.4404 19.4316 91.8691 20.2738 91.4784 21.9234C91.0876 23.573 90.8632 24.1732 90.3222 25.4441C87.1542 32.3767 82.5064 38.348 77.6206 44.1236C76.699 45.2132 76.6583 46.0111 77.1747 47.2441C79.3796 52.5097 81.4466 57.8322 83.6357 63.1044C84.3636 64.857 85.263 66.5439 86.1617 68.2189C87.0699 69.9128 87.7191 70.8081 90.4777 70.771C91.6144 70.7671 93.7749 70.464 93.9577 72.1093C94.1577 73.9076 91.9741 74.1755 90.6726 74.441C89.2036 74.7404 88.464 74.8548 86.9613 74.8583C83.4968 74.8658 79.4029 73.54 77.707 70.4625C75.9708 67.3121 75.0339 65.0148 73.4412 60.7117C72.3956 57.8867 71.2214 55.1062 69.9919 51.9634C69.2997 52.7064 68.6482 53.2246 68.2257 53.8886C62.9822 60.9974 59.9374 66.748 57.589 70.7853C55.7375 73.9681 55.5824 75.3744 53.3834 74.915C51.3783 74.0955 51.957 71.4048 52.1148 70.7232C53.0451 66.7058 55.9892 62.7593 58.2834 59.2904C60.8476 55.4128 63.9998 51.9277 66.8095 48.2068C67.2255 47.656 67.5113 46.607 67.2747 46.0248C64.7556 39.8263 62.1361 33.6677 59.507 27.514C58.0769 24.4633 57.1044 22.518 51.4802 22.7295C50.55 22.6449 49.9857 22.3998 50.0009 21.3258C50.0009 20.023 50.8804 19.5607 51.525 19.3695C57.8796 17.4838 64.2646 18.039 67.5718 25.1429C69.6206 29.5428 71.4345 34.0513 73.3587 38.5095C73.6417 39.1631 73.9484 39.806 74.3912 40.7781L74.391 40.7783ZM0 57.1177C1.47812 56.0086 2.50781 54.9531 3.08984 53.949C3.6705 52.9462 3.96132 51.731 3.96132 50.305V7.28828C3.96132 6.07402 3.7123 4.88574 3.21523 3.72324C2.89509 3.21382 2.56303 2.71199 2.21933 2.21816C1.88789 1.74277 1.28027 1.00391 0.396289 0H20.0428C26.4324 0 31.4369 1.29492 35.0552 3.88183C38.6718 6.47031 40.4816 10.0611 40.4816 14.656C40.4816 18.248 39.2658 21.2586 36.8375 23.6871C35.4634 25.0609 34.1168 26.0637 32.797 26.6972C31.4763 27.331 29.3908 27.9922 26.5387 28.6777L31.8461 35.7281C32.9554 37.2074 34.4603 39.0293 36.3617 41.1945C38.4734 43.5713 40.7447 46.0007 43.1746 48.4828C45.3394 50.7543 47.0427 52.4046 48.2843 53.4339C49.5246 54.464 51.4136 55.6919 53.9488 57.1175H41.1154C39.0021 57.1175 36.7308 55.9033 34.3021 53.4734C31.4502 50.5693 28.5453 47.0047 25.5881 42.7787C23.5804 40.0853 21.8115 37.6033 20.2803 35.332C19.0648 33.5371 17.3217 30.8164 15.0516 27.1721C24.9804 25.7994 29.9449 21.9435 29.9449 15.6058C29.9449 9.69159 25.7463 6.73339 17.3488 6.73339H14.1808V50.1355C14.1808 51.6703 14.458 52.9134 15.0125 53.8654C15.567 54.8183 16.6367 55.9029 18.2211 57.1183H0.000195205L0 57.1177Z" fill="#2B2A29"/>
</svg>
